<svg width="512" height="512" viewBox="0 0 512 512" xmlns="http://www.w3.org/2000/svg">
  <!-- Background gradient -->
  <defs>
    <linearGradient id="vaultGradient" x1="0%" y1="0%" x2="100%" y2="100%">
      <stop offset="0%" style="stop-color:#1a1a2e;stop-opacity:1" />
      <stop offset="100%" style="stop-color:#16213e;stop-opacity:1" />
    </linearGradient>
    <linearGradient id="filmGradient" x1="0%" y1="0%" x2="100%" y2="100%">
      <stop offset="0%" style="stop-color:#e94560;stop-opacity:1" />
      <stop offset="100%" style="stop-color:#d63447;stop-opacity:1" />
    </linearGradient>
    <linearGradient id="accentGradient" x1="0%" y1="0%" x2="0%" y2="100%">
      <stop offset="0%" style="stop-color:#f39c12;stop-opacity:1" />
      <stop offset="100%" style="stop-color:#e67e22;stop-opacity:1" />
    </linearGradient>
  </defs>
  
  <!-- Rounded square background (vault door) -->
  <rect x="32" y="32" width="448" height="448" rx="80" fill="url(#vaultGradient)"/>
  
  <!-- Vault door ring (outer circle) -->
  <circle cx="256" cy="256" r="160" fill="none" stroke="#2c3e50" stroke-width="8"/>
  <circle cx="256" cy="256" r="150" fill="none" stroke="#34495e" stroke-width="4"/>
  
  <!-- Film reel center -->
  <circle cx="256" cy="256" r="120" fill="url(#filmGradient)"/>
  
  <!-- Film reel holes (8 holes around the center) -->
  <g fill="#1a1a2e">
    <circle cx="256" cy="156" r="20"/>
    <circle cx="316" cy="186" r="20"/>
    <circle cx="346" cy="246" r="20"/>
    <circle cx="346" cy="316" r="20"/>
    <circle cx="316" cy="376" r="20"/>
    <circle cx="256" cy="406" r="20"/>
    <circle cx="196" cy="376" r="20"/>
    <circle cx="166" cy="316" r="20"/>
    <circle cx="166" cy="246" r="20"/>
    <circle cx="196" cy="186" r="20"/>
  </g>
  
  <!-- Center hub -->
  <circle cx="256" cy="256" r="50" fill="url(#accentGradient)"/>
  <circle cx="256" cy="256" r="40" fill="#2c3e50"/>
  
  <!-- Vault lock indicator -->
  <circle cx="256" cy="256" r="15" fill="url(#accentGradient)"/>
  
  <!-- Film strip accent on top -->
  <g fill="#ecf0f1" opacity="0.9">
    <rect x="140" y="80" width="232" height="40" rx="8"/>
    <rect x="150" y="85" width="30" height="30" fill="#34495e"/>
    <rect x="190" y="85" width="30" height="30" fill="#34495e"/>
    <rect x="230" y="85" width="30" height="30" fill="#34495e"/>
    <rect x="270" y="85" width="30" height="30" fill="#34495e"/>
    <rect x="310" y="85" width="30" height="30" fill="#34495e"/>
    <rect x="350" y="85" width="30" height="30" fill="#34495e"/>
  </g>
  
  <!-- Highlight effect -->
  <circle cx="256" cy="256" r="180" fill="none" stroke="#ffffff" stroke-width="3" opacity="0.1"/>
</svg>
